-vsync is deprecated. Use -fps_mode
Passing a number to -vsync is deprecated, use a string argument as described in the manual.
[h264 @ 0x573813ebfd80] Reinit context to 848x464, pix_fmt: yuv420p
Input #0, mov,mp4,m4a,3gp,3g2,mj2, from '/var/www/html/project/media/video/original/WhatsApp_Video_2025-12-28_at_11.07.20.mp4':
  Metadata:
    major_brand     : mp42
    minor_version   : 0
    compatible_brands: mp42isom
  Duration: 00:00:45.07, start: 0.000000, bitrate: 1240 kb/s
  Stream #0:0[0x1](und): Video: h264 (Baseline), 1 reference frame (avc1 / 0x31637661), yuv420p(tv, bt709, progressive, left), 848x464, 1188 kb/s, 30 fps, 30 tbr, 600 tbn (default)
    Metadata:
      vendor_id       : [0][0][0][0]
  Stream #0:1[0x2](und): Audio: aac (LC) (mp4a / 0x6134706D), 44100 Hz, stereo, fltp, 50 kb/s (default)
    Metadata:
      vendor_id       : [0][0][0][0]
[h264 @ 0x573813f1b780] Reinit context to 1280x720, pix_fmt: yuv420p
Input #1, mov,mp4,m4a,3gp,3g2,mj2, from '/var/www/html/project/static/images/templates/Codino.mp4':
  Metadata:
    major_brand     : mp42
    minor_version   : 1
    compatible_brands: isommp41mp42
    creation_time   : 2021-07-11T07:02:58.000000Z
  Duration: 00:00:02.00, start: 0.000000, bitrate: 1007 kb/s
  Stream #1:0[0x1](ita): Audio: aac (LC) (mp4a / 0x6134706D), 44100 Hz, stereo, fltp, 102 kb/s (default)
    Metadata:
      creation_time   : 2021-07-11T07:02:58.000000Z
      handler_name    : Core Media Audio
      vendor_id       : [0][0][0][0]
  Stream #1:1[0x2](und): Video: h264 (High), 1 reference frame (avc1 / 0x31637661), yuv420p(tv, bt709, progressive, left), 1280x720 [SAR 1:1 DAR 16:9], 813 kb/s, 25 fps, 25 tbr, 25k tbn (default)
    Metadata:
      creation_time   : 2021-07-11T07:02:58.000000Z
      handler_name    : Core Media Video
      vendor_id       : [0][0][0][0]
[out#0/mp4 @ 0x573815c42b00] Adding streams from explicit maps...
[out#0/mp4 @ 0x573815c42b00] Creating output stream from an explicitly mapped complex filtergraph 0, output [v]
[vost#0:0/libx264 @ 0x573815c43880] Created video stream from complex filtergraph 0:[concat]
[vost#0:0/libx264 @ 0x573815c43880] 
[out#0/mp4 @ 0x573815c42b00] Creating output stream from an explicitly mapped complex filtergraph 0, output [a]
[aost#0:1/aac @ 0x573815c45280] Created audio stream from complex filtergraph 0:[concat]
[aost#0:1/aac @ 0x573815c45280] 
Stream mapping:
  Stream #0:0 (h264) -> scale:default
  Stream #0:1 (aac) -> concat
  Stream #1:0 (aac) -> concat
  Stream #1:1 (h264) -> scale:default
  concat -> Stream #0:0 (libx264)
  concat -> Stream #0:1 (aac)
Press [q] to stop, [?] for help
[h264 @ 0x573813f15580] Reinit context to 848x464, pix_fmt: yuv420p
[h264 @ 0x573813f03ec0] Reinit context to 1280x720, pix_fmt: yuv420p
[Parsed_scale_0 @ 0x7e0b24001840] w:1280 h:720 flags:'' interl:0
[Parsed_scale_2 @ 0x573813ea88c0] w:1280 h:720 flags:'' interl:0
[graph 0 input from stream 0:0 @ 0x573815d3b180] w:848 h:464 pixfmt:yuv420p tb:1/600 fr:30/1 sar:0/1
[graph 0 input from stream 1:1 @ 0x573814043200] w:1280 h:720 pixfmt:yuv420p tb:1/25000 fr:25/1 sar:1/1
[graph_0_in_0_1 @ 0x573814043300] tb:1/44100 samplefmt:fltp samplerate:44100 chlayout:stereo
[graph_0_in_1_0 @ 0x573815d3b580] tb:1/44100 samplefmt:fltp samplerate:44100 chlayout:stereo
[Parsed_scale_0 @ 0x7e0b24001840] w:848 h:464 fmt:yuv420p sar:0/1 -> w:1280 h:720 fmt:yuv420p sar:0/1 flags:0x00000004
[Parsed_setsar_1 @ 0x7e0b24001b00] w:1280 h:720 sar:0/1 dar:16/9 -> sar:1/1 dar:16/9
[Parsed_scale_2 @ 0x573813ea88c0] w:1280 h:720 fmt:yuv420p sar:1/1 -> w:1280 h:720 fmt:yuv420p sar:1/1 flags:(null)
[Parsed_setsar_3 @ 0x573813ec4380] w:1280 h:720 sar:1/1 dar:16/9 -> sar:1/1 dar:16/9
[Parsed_concat_4 @ 0x573813ea89c0] Video inputs have different frame rates, output will be VFR
[Parsed_scale_0 @ 0x7e0b24001840] w:848 h:464 fmt:yuv420p sar:0/1 -> w:1280 h:720 fmt:yuv420p sar:0/1 flags:0x00000004
    Last message repeated 2 times
[Parsed_scale_2 @ 0x573813ea88c0] w:1280 h:720 fmt:yuv420p sar:1/1 -> w:1280 h:720 fmt:yuv420p sar:1/1 flags:(null)
    Last message repeated 2 times
[libx264 @ 0x573815c43c40] using SAR=1/1
[libx264 @ 0x573815c43c40] MB rate (3600000000) > level limit (16711680)
[libx264 @ 0x573815c43c40] using cpu capabilities: MMX2 SSE2Fast SSSE3 SSE4.2 AVX FMA3 BMI2 AVX2
[libx264 @ 0x573815c43c40] profile High, level 6.2, 4:2:0, 8-bit
[libx264 @ 0x573815c43c40] 264 - core 164 r3108 31e19f9 - H.264/MPEG-4 AVC codec - Copyleft 2003-2023 - http://www.videolan.org/x264.html - options: cabac=1 ref=1 deblock=1:0:0 analyse=0x3:0x113 me=hex subme=2 psy=1 psy_rd=1.00:0.00 mixed_ref=0 me_range=16 chroma_me=1 trellis=0 8x8dct=1 cqm=0 deadzone=21,11 fast_pskip=1 chroma_qp_offset=0 threads=22 lookahead_threads=5 sliced_threads=0 nr=0 decimate=1 interlaced=0 bluray_compat=0 constrained_intra=0 bframes=3 b_pyramid=2 b_adapt=1 b_bias=0 direct=1 weightb=1 open_gop=0 weightp=1 keyint=250 keyint_min=25 scenecut=40 intra_refresh=0 rc_lookahead=10 rc=crf mbtree=1 crf=18.0 qcomp=0.60 qpmin=0 qpmax=69 qpstep=4 ip_ratio=1.40 aq=1:1.00
Output #0, mp4, to '/var/www/html/project/media/video/watermarks/WhatsApp_Video_2025-12-28_at_11.07.20.mp4':
  Metadata:
    major_brand     : mp42
    minor_version   : 0
    compatible_brands: mp42isom
    encoder         : Lavf60.16.100
  Stream #0:0: Video: h264, 1 reference frame (avc1 / 0x31637661), yuv420p(tv, bt709, progressive, left), 1280x720 (0x0) [SAR 1:1 DAR 16:9], q=2-31, 1000k tbn
    Metadata:
      encoder         : Lavc60.31.102 libx264
    Side data:
      cpb: bitrate max/min/avg: 0/0/0 buffer size: 0 vbv_delay: N/A
  Stream #0:1: Audio: aac (LC) (mp4a / 0x6134706D), 44100 Hz, stereo, fltp, delay 1024, 128 kb/s
    Metadata:
      encoder         : Lavc60.31.102 aac
[in#0/mov,mp4,m4a,3gp,3g2,mj2 @ 0x573813ebf1c0] EOF while reading input
[in#0/mov,mp4,m4a,3gp,3g2,mj2 @ 0x573813ebf1c0] Terminating demuxer thread
[vist#0:0/h264 @ 0x573813f16080] Decoder thread received EOF packet
[vist#0:0/h264 @ 0x573813f16080] Decoder returned EOF, finishing
[vist#0:0/h264 @ 0x573813f16080] Terminating decoder thread
[Parsed_concat_4 @ 0x573813ea89c0] EOF on in0:v0, 1 streams left in segment.
[aist#0:1/aac @ 0x573813f63300] Decoder thread received EOF packet
[aist#0:1/aac @ 0x573813f63300] Decoder returned EOF, finishing
[aist#0:1/aac @ 0x573813f63300] Terminating decoder thread
[Parsed_concat_4 @ 0x573813ea89c0] EOF on in0:a0, 0 streams left in segment.
[Parsed_concat_4 @ 0x573813ea89c0] Segment finished at pts=45069932
[in#1/mov,mp4,m4a,3gp,3g2,mj2 @ 0x573814161fc0] EOF while reading input
[in#1/mov,mp4,m4a,3gp,3g2,mj2 @ 0x573814161fc0] Terminating demuxer thread
[aist#1:0/aac @ 0x573813f62cc0] Decoder thread received EOF packet
[aist#1:0/aac @ 0x573813f62cc0] Decoder returned EOF, finishing
[aist#1:0/aac @ 0x573813f62cc0] Terminating decoder thread
[Parsed_concat_4 @ 0x573813ea89c0] EOF on in1:a0, 1 streams left in segment.
[vist#1:1/h264 @ 0x573813eb52c0] Decoder thread received EOF packet
[vist#1:1/h264 @ 0x573813eb52c0] Decoder returned EOF, finishing
[vist#1:1/h264 @ 0x573813eb52c0] Terminating decoder thread
[Parsed_concat_4 @ 0x573813ea89c0] EOF on in1:v0, 0 streams left in segment.
[Parsed_concat_4 @ 0x573813ea89c0] Segment finished at pts=47088617
No more output streams to write to, finishing.
[out#0/mp4 @ 0x573815c42b00] All streams finished
[out#0/mp4 @ 0x573815c42b00] Terminating muxer thread
[AVIOContext @ 0x573815d10500] Statistics: 16384574 bytes written, 2 seeks, 66 writeouts
[out#0/mp4 @ 0x573815c42b00] Output file #0 (/var/www/html/project/media/video/watermarks/WhatsApp_Video_2025-12-28_at_11.07.20.mp4):
[out#0/mp4 @ 0x573815c42b00]   Output stream #0:0 (video): 1401 frames encoded; 1401 packets muxed (15570527 bytes); 
[out#0/mp4 @ 0x573815c42b00]   Output stream #0:1 (audio): 2028 frames encoded (2076608 samples); 2029 packets muxed (754808 bytes); 
[out#0/mp4 @ 0x573815c42b00]   Total: 3430 packets (16325335 bytes) muxed
[out#0/mp4 @ 0x573815c42b00] video:15206kB audio:737kB subtitle:0kB other streams:0kB global headers:0kB muxing overhead: 0.362841%
frame= 1401 fps= 99 q=-1.0 Lsize=   16001kB time=00:00:47.06 bitrate=2784.9kbits/s speed=3.34x    
[AVIOContext @ 0x573813eb6ac0] Statistics: 5858 bytes written, 0 seeks, 29 writeouts
[libx264 @ 0x573815c43c40] frame I:7     Avg QP:12.07  size: 71119
[libx264 @ 0x573815c43c40] frame P:381   Avg QP:15.82  size: 24304
[libx264 @ 0x573815c43c40] frame B:1013  Avg QP:19.08  size:  5738
[libx264 @ 0x573815c43c40] consecutive B-frames:  2.2%  3.0%  3.4% 91.4%
[libx264 @ 0x573815c43c40] mb I  I16..4: 42.7% 20.4% 36.9%
[libx264 @ 0x573815c43c40] mb P  I16..4: 16.8% 10.6%  2.1%  P16..4: 24.6% 13.8%  8.7%  0.0%  0.0%    skip:23.3%
[libx264 @ 0x573815c43c40] mb B  I16..4:  2.2%  0.9%  0.4%  B16..8: 21.2%  8.1%  0.8%  direct: 8.5%  skip:57.9%  L0:38.3% L1:44.2% BI:17.5%
[libx264 @ 0x573815c43c40] 8x8 transform intra:33.0% inter:22.4%
[libx264 @ 0x573815c43c40] coded y,uvDC,uvAC intra: 26.2% 49.1% 19.8% inter: 10.6% 14.2% 0.3%
[libx264 @ 0x573815c43c40] i16 v,h,dc,p: 35% 51%  8%  5%
[libx264 @ 0x573815c43c40] i8 v,h,dc,ddl,ddr,vr,hd,vl,hu: 19% 40% 25%  2%  3%  2%  3%  2%  3%
[libx264 @ 0x573815c43c40] i4 v,h,dc,ddl,ddr,vr,hd,vl,hu: 19% 30% 20%  4%  5%  5%  7%  3%  6%
[libx264 @ 0x573815c43c40] i8c dc,h,v,p: 53% 27% 15%  5%
[libx264 @ 0x573815c43c40] Weighted P-Frames: Y:2.6% UV:0.0%
[libx264 @ 0x573815c43c40] kb/s:2646.25
[aac @ 0x573815c45640] Qavg: 2441.989
[in#0/mov,mp4,m4a,3gp,3g2,mj2 @ 0x573813ebf1c0] Input file #0 (/var/www/html/project/media/video/original/WhatsApp_Video_2025-12-28_at_11.07.20.mp4):
[in#0/mov,mp4,m4a,3gp,3g2,mj2 @ 0x573813ebf1c0]   Input stream #0:0 (video): 1351 packets read (6688341 bytes); 1351 frames decoded; 0 decode errors; 
[in#0/mov,mp4,m4a,3gp,3g2,mj2 @ 0x573813ebf1c0]   Input stream #0:1 (audio): 1941 packets read (284188 bytes); 1941 frames decoded; 0 decode errors (1987584 samples); 
[in#0/mov,mp4,m4a,3gp,3g2,mj2 @ 0x573813ebf1c0]   Total: 3292 packets (6972529 bytes) demuxed
[AVIOContext @ 0x573813ebf580] Statistics: 25595586 bytes read, 431 seeks
[in#1/mov,mp4,m4a,3gp,3g2,mj2 @ 0x573814161fc0] Input file #1 (/var/www/html/project/static/images/templates/Codino.mp4):
[in#1/mov,mp4,m4a,3gp,3g2,mj2 @ 0x573814161fc0]   Input stream #1:0 (audio): 89 packets read (26579 bytes); 87 frames decoded; 0 decode errors (89024 samples); 
[in#1/mov,mp4,m4a,3gp,3g2,mj2 @ 0x573814161fc0]   Input stream #1:1 (video): 50 packets read (203365 bytes); 50 frames decoded; 0 decode errors; 
[in#1/mov,mp4,m4a,3gp,3g2,mj2 @ 0x573814161fc0]   Total: 139 packets (229944 bytes) demuxed
[AVIOContext @ 0x573813eb5180] Statistics: 1629219 bytes read, 37 seeks
